<svg xmlns="http://www.w3.org/2000/svg" viewBox="0 0 1000 500" style="background: transparent;">
  <!-- Simplified but recognizable world map -->
  
  <!-- North America -->
  <path d="M 100 50 L 150 45 L 200 50 L 250 55 L 300 60 L 350 65 L 400 70 L 450 75 L 500 80 L 550 85 L 600 90 L 600 120 L 590 150 L 580 180 L 570 210 L 560 240 L 550 270 L 540 300 L 530 330 L 520 360 L 510 380 L 500 400 L 450 400 L 400 395 L 350 390 L 300 385 L 250 380 L 200 375 L 150 370 L 120 360 L 100 350 L 90 340 L 85 330 L 80 320 L 75 310 L 70 300 L 65 290 L 60 280 L 55 270 L 50 260 L 45 250 L 40 240 L 35 230 L 30 220 L 25 210 L 20 200 L 15 190 L 10 180 L 5 170 L 0 160 L 0 140 L 5 130 L 10 120 L 15 110 L 20 100 L 25 90 L 30 80 L 35 70 L 40 60 L 50 55 Z" 
        fill="rgba(0, 246, 255, 0.12)" stroke="rgba(0, 246, 255, 0.35)" stroke-width="1.5"/>
  
  <!-- South America -->
  <path d="M 220 280 L 240 300 L 260 320 L 280 340 L 300 360 L 320 380 L 340 400 L 360 420 L 380 440 L 400 450 L 400 470 L 380 480 L 360 485 L 340 480 L 320 475 L 300 470 L 280 465 L 260 460 L 240 455 L 220 450 L 200 445 L 180 440 L 160 435 L 140 430 L 120 425 L 100 420 L 90 415 L 85 410 L 80 405 L 75 400 L 70 395 L 65 390 L 60 385 L 55 380 L 50 375 L 45 370 L 40 365 L 35 360 L 30 355 L 25 350 L 20 345 L 15 340 L 10 335 L 5 330 L 0 325 L 0 310 L 5 305 L 10 300 L 15 295 L 20 290 L 25 285 L 30 280 L 35 275 L 40 270 L 45 265 L 50 260 L 55 255 L 60 250 L 65 245 L 70 240 L 75 235 L 80 230 L 85 225 L 90 220 L 95 215 L 100 210 L 105 205 L 110 200 L 115 195 L 120 190 L 125 185 L 130 180 L 135 175 L 140 170 L 145 165 L 150 160 L 155 155 L 160 150 L 165 145 L 170 140 L 175 135 L 180 130 L 185 125 L 190 120 L 195 115 L 200 110 L 205 105 L 210 100 L 215 95 L 220 90 L 225 85 L 230 80 L 235 75 L 240 70 L 245 65 L 250 60 L 255 55 L 260 50 L 265 45 L 270 40 L 275 35 L 280 30 L 285 25 L 290 20 L 295 15 L 300 10 L 305 5 L 310 0 L 320 0 L 330 5 L 340 10 L 350 15 L 360 20 L 370 25 L 380 30 L 390 35 L 400 40 L 410 45 L 420 50 L 430 55 L 440 60 L 450 65 L 460 70 L 470 75 L 480 80 L 490 85 L 500 90 L 510 95 L 520 100 L 530 105 L 540 110 L 550 115 L 560 120 L 570 125 L 580 130 L 590 135 L 600 140 L 610 145 L 620 150 L 630 155 L 640 160 L 650 165 L 660 170 L 670 175 L 680 180 L 690 185 L 700 190 L 710 195 L 720 200 L 730 205 L 740 210 L 750 215 L 760 220 L 770 225 L 780 230 L 790 235 L 800 240 L 810 245 L 820 250 L 830 255 L 840 260 L 850 265 L 860 270 L 870 275 L 880 280 Z" 
        fill="rgba(0, 246, 255, 0.12)" stroke="rgba(0, 246, 255, 0.35)" stroke-width="1.5"/>
  
  <!-- Europe -->
  <path d="M 450 40 L 480 42 L 510 44 L 540 46 L 570 48 L 600 50 L 630 52 L 660 54 L 690 56 L 720 58 L 750 60 L 750 80 L 745 100 L 740 120 L 735 140 L 730 160 L 725 180 L 720 200 L 715 220 L 710 240 L 705 260 L 700 280 L 695 300 L 690 320 L 685 340 L 680 360 L 675 380 L 670 400 L 650 400 L 630 395 L 610 390 L 590 385 L 570 380 L 550 375 L 530 370 L 510 365 L 490 360 L 470 355 L 450 350 L 430 345 L 410 340 L 390 335 L 370 330 L 350 325 L 330 320 L 310 315 L 290 310 L 270 305 L 250 300 L 230 295 L 210 290 L 190 285 L 170 280 L 150 275 L 130 270 L 110 265 L 90 260 L 70 255 L 50 250 L 30 245 L 10 240 L 0 235 L 0 220 L 5 210 L 10 200 L 15 190 L 20 180 L 25 170 L 30 160 L 35 150 L 40 140 L 45 130 L 50 120 L 55 110 L 60 100 L 65 90 L 70 80 L 75 70 L 80 60 L 85 50 L 90 45 Z" 
        fill="rgba(0, 246, 255, 0.12)" stroke="rgba(0, 246, 255, 0.35)" stroke-width="1.5"/>
  
  <!-- Africa -->
  <path d="M 500 180 L 520 190 L 540 200 L 560 210 L 580 220 L 600 230 L 620 240 L 640 250 L 660 260 L 680 270 L 700 280 L 720 290 L 740 300 L 760 310 L 780 320 L 800 330 L 820 340 L 840 350 L 860 360 L 880 370 L 900 380 L 920 390 L 940 400 L 960 410 L 980 420 L 1000 430 L 1000 450 L 980 460 L 960 465 L 940 470 L 920 475 L 900 480 L 880 485 L 860 490 L 840 495 L 820 500 L 800 500 L 780 495 L 760 490 L 740 485 L 720 480 L 700 475 L 680 470 L 660 465 L 640 460 L 620 455 L 600 450 L 580 445 L 560 440 L 540 435 L 520 430 L 500 425 L 480 420 L 460 415 L 440 410 L 420 405 L 400 400 L 380 395 L 360 390 L 340 385 L 320 380 L 300 375 L 280 370 L 260 365 L 240 360 L 220 355 L 200 350 L 180 345 L 160 340 L 140 335 L 120 330 L 100 325 L 80 320 L 60 315 L 40 310 L 20 305 L 0 300 L 0 280 L 20 270 L 40 260 L 60 250 L 80 240 L 100 230 L 120 220 L 140 210 L 160 200 L 180 190 L 200 185 Z" 
        fill="rgba(0, 246, 255, 0.12)" stroke="rgba(0, 246, 255, 0.35)" stroke-width="1.5"/>
  
  <!-- Asia -->
  <path d="M 750 20 L 800 25 L 850 30 L 900 35 L 950 40 L 1000 45 L 1000 70 L 995 100 L 990 130 L 985 160 L 980 190 L 975 220 L 970 250 L 965 280 L 960 310 L 955 340 L 950 370 L 945 400 L 940 420 L 935 440 L 930 450 L 920 450 L 910 445 L 900 440 L 890 435 L 880 430 L 870 425 L 860 420 L 850 415 L 840 410 L 830 405 L 820 400 L 810 395 L 800 390 L 790 385 L 780 380 L 770 375 L 760 370 L 750 365 L 740 360 L 730 355 L 720 350 L 710 345 L 700 340 L 690 335 L 680 330 L 670 325 L 660 320 L 650 315 L 640 310 L 630 305 L 620 300 L 610 295 L 600 290 L 590 285 L 580 280 L 570 275 L 560 270 L 550 265 L 540 260 L 530 255 L 520 250 L 510 245 L 500 240 L 490 235 L 480 230 L 470 225 L 460 220 L 450 215 L 440 210 L 430 205 L 420 200 L 410 195 L 400 190 L 390 185 L 380 180 L 370 175 L 360 170 L 350 165 L 340 160 L 330 155 L 320 150 L 310 145 L 300 140 L 290 135 L 280 130 L 270 125 L 260 120 L 250 115 L 240 110 L 230 105 L 220 100 L 210 95 L 200 90 L 190 85 L 180 80 L 170 75 L 160 70 L 150 65 L 140 60 L 130 55 L 120 50 L 110 45 L 100 40 L 90 35 L 80 30 L 70 25 L 60 20 L 50 15 L 40 10 L 30 5 L 20 0 L 680 15 L 700 12 L 720 10 L 750 20 Z" 
        fill="rgba(0, 246, 255, 0.12)" stroke="rgba(0, 246, 255, 0.35)" stroke-width="1.5"/>
  
  <!-- Australia -->
  <path d="M 850 340 L 880 345 L 910 350 L 940 355 L 970 360 L 1000 365 L 1000 385 L 990 395 L 980 400 L 970 405 L 960 410 L 950 415 L 940 420 L 930 425 L 920 430 L 910 435 L 900 440 L 890 445 L 880 450 L 870 455 L 860 460 L 850 465 L 840 470 L 830 475 L 820 480 L 810 485 L 800 490 L 790 495 L 780 500 L 770 500 L 760 495 L 750 490 L 740 485 L 730 480 L 720 475 L 710 470 L 700 465 L 690 460 L 680 455 L 670 450 L 660 445 L 650 440 L 640 435 L 630 430 L 620 425 L 610 420 L 600 415 L 590 410 L 580 405 L 570 400 L 560 395 L 550 390 L 540 385 L 530 380 L 520 375 L 510 370 L 500 365 L 490 360 L 480 355 L 470 350 L 460 345 L 450 340 Z" 
        fill="rgba(0, 246, 255, 0.12)" stroke="rgba(0, 246, 255, 0.35)" stroke-width="1.5"/>
</svg>
